<svg width="30" height="31" viewBox="0 0 30 31" fill="none" xmlns="http://www.w3.org/2000/svg">
<path d="M12.5875 3.52788L3.92503 10.4709C2.95003 11.2465 2.32503 12.8853 2.53753 14.1113L4.20003 24.0692C4.50003 25.8456 6.20002 27.2842 8.00002 27.2842H22C23.7875 27.2842 25.5 25.8331 25.8 24.0692L27.4625 14.1113C27.6625 12.8853 27.0375 11.2465 26.075 10.4709L17.4125 3.5404C16.075 2.46455 13.9125 2.46453 12.5875 3.52788Z" stroke="#35EB9A" stroke-width="1.5" stroke-linecap="round" stroke-linejoin="round"/>
<path d="M15 19.3903C16.7259 19.3903 18.125 17.9901 18.125 16.2629C18.125 14.5356 16.7259 13.1354 15 13.1354C13.2741 13.1354 11.875 14.5356 11.875 16.2629C11.875 17.9901 13.2741 19.3903 15 19.3903Z" stroke="#35EB9A" stroke-width="1.5" stroke-linecap="round" stroke-linejoin="round"/>
</svg>
