<svg width="35" height="35" viewBox="0 0 35 35" fill="none" xmlns="http://www.w3.org/2000/svg">
<path d="M29.1667 16.0416C29.1667 23.2895 23.2897 29.1666 16.0417 29.1666C8.79383 29.1666 2.91675 23.2895 2.91675 16.0416C2.91675 8.79371 8.79383 2.91663 16.0417 2.91663" stroke="#292D32" stroke-width="1.5" stroke-linecap="round" stroke-linejoin="round"/>
<path d="M19.6875 8.93954C19.177 7.33537 19.775 5.33746 21.4666 4.79787C22.3562 4.50621 23.45 4.75412 24.077 5.61454C24.6604 4.72496 25.7979 4.52079 26.6729 4.79787C28.3645 5.33746 28.9625 7.33537 28.452 8.93954C27.65 11.4916 24.85 12.8187 24.077 12.8187C23.2895 12.8187 20.5187 11.5208 19.6875 8.93954Z" stroke="#292D32" stroke-width="1.5" stroke-linecap="round" stroke-linejoin="round"/>
<path d="M27.606 30.1726C28.379 32.5059 30.1435 32.7393 31.4998 30.6976C32.7394 28.8309 31.9227 27.2997 29.6769 27.2997C28.0144 27.2851 27.081 28.583 27.606 30.1726Z" stroke="#292D32" stroke-width="1.5" stroke-linecap="round" stroke-linejoin="round"/>
</svg>
