<svg width="35" height="35" viewBox="0 0 35 35" fill="none" xmlns="http://www.w3.org/2000/svg">
<path d="M14.6855 4.11256L4.57927 12.2063C3.44177 13.1105 2.7126 15.0209 2.96052 16.4501L4.9001 28.0584C5.2501 30.1292 7.23343 31.8063 9.33343 31.8063H25.6668C27.7522 31.8063 29.7501 30.1146 30.1001 28.0584L32.0397 16.4501C32.273 15.0209 31.5439 13.1105 30.4209 12.2063L20.3147 4.12716C18.7543 2.87299 16.2314 2.87297 14.6855 4.11256Z" stroke="black" stroke-width="1.5" stroke-linecap="round" stroke-linejoin="round"/>
<path d="M17.5001 22.6042C19.5136 22.6042 21.1459 20.9719 21.1459 18.9583C21.1459 16.9448 19.5136 15.3125 17.5001 15.3125C15.4865 15.3125 13.8542 16.9448 13.8542 18.9583C13.8542 20.9719 15.4865 22.6042 17.5001 22.6042Z" stroke="black" stroke-width="1.5" stroke-linecap="round" stroke-linejoin="round"/>
</svg>
