<svg width="30" height="30" viewBox="0 0 30 30" fill="none" xmlns="http://www.w3.org/2000/svg">
<path d="M27.2775 0.0187683C27.2464 0.0162506 27.22 0 27.1875 0H13.7501C11.6826 0 10.0001 1.68251 10.0001 3.75V4.99992C10.0001 5.69 10.56 6.25008 11.25 6.25008C11.9401 6.25008 12.5 5.69 12.5 4.99992V3.75C12.5 3.06129 13.0612 2.50008 13.7501 2.50008H19.5738L19.1925 2.62756C18.1801 2.97752 17.5001 3.93127 17.5001 4.99992V23.7499H13.7501C13.0612 23.7499 12.5 23.1887 12.5 22.5V19.9999C12.5 19.3101 11.9401 18.75 11.25 18.75C10.56 18.75 10.0001 19.3101 10.0001 19.9999V22.5C10.0001 24.5675 11.6826 26.25 13.7501 26.25H17.5001V27.4999C17.5001 28.8787 18.6212 30 20 30C20.2675 30 20.5214 29.9613 20.7962 29.8762L28.3063 27.3724C29.32 27.0225 30 26.0687 30 25.0001V2.50008C30 1.04256 28.7437 -0.100021 27.2775 0.0187683Z" fill="#42D392"/>
<path d="M13.3836 11.6164L8.38371 6.61652C8.0262 6.25901 7.48878 6.15143 7.02118 6.3453C6.55495 6.53893 6.25008 6.99532 6.25008 7.50023V11.2502H1.24992C0.560074 11.2502 0 11.8103 0 12.5002C0 13.1902 0.560074 13.7503 1.24992 13.7503H6.25008V17.5003C6.25008 18.0052 6.55495 18.4614 7.02118 18.6552C7.48878 18.8489 8.0262 18.7415 8.38371 18.384L13.3836 13.3839C13.8725 12.8952 13.8725 12.1053 13.3836 11.6164Z" fill="#42D392"/>
</svg>
