<svg width="26" height="26" viewBox="0 0 26 26" fill="none" xmlns="http://www.w3.org/2000/svg">
<path d="M9.20833 20.5833H8.66666C4.33333 20.5833 2.16666 19.5 2.16666 14.0833V8.66663C2.16666 4.33329 4.33333 2.16663 8.66666 2.16663H17.3333C21.6667 2.16663 23.8333 4.33329 23.8333 8.66663V14.0833C23.8333 18.4166 21.6667 20.5833 17.3333 20.5833H16.7917C16.4558 20.5833 16.1308 20.7458 15.925 21.0166L14.3 23.1833C13.585 24.1366 12.415 24.1366 11.7 23.1833L10.075 21.0166C9.90166 20.7783 9.50083 20.5833 9.20833 20.5833Z" stroke="#343A40" stroke-width="1.5" stroke-miterlimit="10" stroke-linecap="round" stroke-linejoin="round"/>
<path d="M17.3295 11.9167H17.3392" stroke="#343A40" stroke-width="2" stroke-linecap="round" stroke-linejoin="round"/>
<path d="M12.9951 11.9167H13.0048" stroke="#343A40" stroke-width="2" stroke-linecap="round" stroke-linejoin="round"/>
<path d="M8.66072 11.9167H8.67045" stroke="#343A40" stroke-width="2" stroke-linecap="round" stroke-linejoin="round"/>
</svg>
