<svg width="30" height="31" viewBox="0 0 30 31" fill="none" xmlns="http://www.w3.org/2000/svg">
<path d="M25.0001 13.8063C25.0001 20.0237 19.9626 25.0652 13.7501 25.0652C7.53756 25.0652 2.50006 20.0237 2.50006 13.8063C2.50006 7.58887 7.53756 2.54736 13.7501 2.54736" stroke="#42D392" stroke-width="1.5" stroke-linecap="round" stroke-linejoin="round"/>
<path d="M16.8751 7.71396C16.4376 6.33787 16.9501 4.62401 18.4001 4.16114C19.1626 3.91094 20.1001 4.12361 20.6376 4.8617C21.1376 4.09859 22.1126 3.92345 22.8626 4.16114C24.3126 4.62401 24.8251 6.33787 24.3876 7.71396C23.7001 9.9032 21.3001 11.0416 20.6376 11.0416C19.9626 11.0416 17.5876 9.92822 16.8751 7.71396Z" stroke="#42D392" stroke-width="1.5" stroke-linecap="round" stroke-linejoin="round"/>
<path d="M23.6624 25.9282C24.3249 27.9298 25.8374 28.1299 26.9999 26.3785C28.0624 24.7773 27.3624 23.4637 25.4374 23.4637C24.0124 23.4512 23.2124 24.5646 23.6624 25.9282Z" stroke="#42D392" stroke-width="1.5" stroke-linecap="round" stroke-linejoin="round"/>
</svg>
