<svg width="46" height="50" viewBox="0 0 46 50" fill="none" xmlns="http://www.w3.org/2000/svg">
<path d="M0.0308754 27.4224C0.0308754 24.2124 0.0708754 21.0124 0.000875355 17.8024C-0.0191246 16.9824 0.300875 16.7024 1.24088 16.8324C1.37088 16.8524 1.50088 16.8324 1.63088 16.8324C3.57088 16.8824 5.69088 16.4024 7.40088 17.0124C9.07088 17.6124 10.3309 18.9624 11.7709 19.9824C17.1709 23.8124 22.5809 27.6124 27.9509 31.4724C29.8609 32.8424 32.0109 34.0224 33.4209 35.8324C35.7909 38.8924 35.9709 42.0724 33.8809 45.2124C31.8609 48.2424 28.6809 49.9124 24.3609 49.9924C17.0309 50.1324 11.8109 45.6424 11.0209 40.1124C10.9309 39.4724 11.1209 39.1824 11.9509 39.2024C13.2509 39.2324 14.5509 39.2424 15.8409 39.2024C16.6409 39.1824 16.8709 39.4724 16.9509 40.0724C17.3809 43.4124 21.5809 45.8424 25.5209 45.0624C27.6409 44.6424 28.8609 43.4624 29.3009 41.7824C29.7209 40.2024 29.2709 38.8024 27.6709 37.6724C23.6509 34.8424 19.6809 31.9424 15.6909 29.0824C12.9009 27.0824 10.1109 25.0924 7.30088 23.1224C6.93088 22.8624 6.62088 22.3424 6.03088 22.5624C5.50088 22.7624 5.79088 23.2724 5.79088 23.6424C5.77088 28.1324 5.76088 32.6224 5.79088 37.1124C5.79088 37.9124 5.61088 38.2824 4.52088 38.2024C3.40088 38.1224 2.27088 38.1324 1.15088 38.2024C0.220875 38.2524 -0.00912464 37.9724 0.000875355 37.2424C0.0408754 33.9624 0.0208754 30.6824 0.0208754 27.4124L0.0308754 27.4224Z" fill="#42D392"/>
<path d="M44.9805 22.6426C44.9805 25.8126 44.9505 28.9826 45.0005 32.1526C45.0205 33.0026 44.8205 33.4026 43.6705 33.2926C42.7705 33.2126 41.8405 33.1926 40.9505 33.2926C38.6905 33.5426 37.0005 32.8926 35.2805 31.6426C28.1705 26.4426 20.9605 21.3326 13.7105 16.2626C8.06046 12.3026 8.66046 5.47256 13.8005 2.03256C17.2705 -0.277438 21.4905 -0.537438 25.6405 0.842562C30.6405 2.50256 33.2905 5.72256 33.9905 10.0726C34.0705 10.5926 33.9305 10.9026 33.2005 10.8726C32.6005 10.8426 31.9905 10.8726 31.3805 10.8726C30.4305 10.8726 29.3905 11.0626 28.5505 10.8126C27.5605 10.5326 28.0205 9.49256 27.6805 8.82256C26.2105 5.95256 22.6505 4.31256 19.4105 5.03256C17.3005 5.51256 16.1005 6.68256 15.6805 8.35256C15.2605 10.0326 15.8805 11.5426 17.4705 12.6826C20.4505 14.8226 23.4305 16.9726 26.5005 19.0326C28.2205 20.1926 29.9405 21.3626 31.6105 22.5526C33.6705 24.0126 35.7305 25.4826 37.7505 26.9926C38.0905 27.2426 38.4205 27.6926 38.9305 27.5326C39.5005 27.3526 39.2205 26.8426 39.2205 26.4826C39.2405 21.9526 39.2505 17.4326 39.2105 12.9026C39.2105 12.1026 39.4605 11.8326 40.4405 11.8926C41.6005 11.9626 42.7805 11.9626 43.9405 11.8926C44.8505 11.8426 45.0005 12.1526 45.0005 12.8126C44.9705 16.0926 44.9905 19.3726 44.9905 22.6426H44.9805Z" fill="#42D392"/>
</svg>
