<?xml version="1.0" encoding="UTF-8"?>
<svg id="Layer_1" data-name="Layer 1" xmlns="http://www.w3.org/2000/svg" viewBox="0 0 173.19 233.72">
  <defs>
    <style>
      .cls-1 {
        fill: #42d392;
      }
    </style>
  </defs>
  <path className="cls-1" d="M.1,128.19c0-14.99,.14-29.98-.1-44.97-.06-3.86,1.14-5.14,4.77-4.54,.49,.08,1,0,1.5,.01,7.47,.24,15.61-2.02,22.23,.85,6.41,2.79,11.28,9.12,16.82,13.9,20.77,17.89,41.62,35.68,62.26,53.71,7.35,6.42,15.64,11.92,21.05,20.39,9.12,14.28,9.81,29.17,1.76,43.82-7.77,14.16-20.01,21.96-36.64,22.35-28.2,.65-48.28-20.34-51.35-46.19-.35-2.98,.38-4.35,3.6-4.24,4.99,.16,10,.21,14.99,.03,3.06-.11,3.97,1.25,4.27,4.07,1.66,15.62,17.81,26.99,32.99,23.34,8.15-1.96,12.85-7.48,14.55-15.32,1.6-7.4-.11-13.93-6.27-19.19-15.49-13.25-30.74-26.77-46.11-40.14-10.73-9.33-21.49-18.63-32.3-27.88-1.41-1.2-2.63-3.66-4.87-2.61-2.03,.94-.93,3.32-.93,5.03-.07,20.99-.13,41.97,.03,62.96,.03,3.75-.71,5.48-4.89,5.12-4.3-.38-8.67-.32-12.98-.02-3.58,.25-4.46-1.06-4.42-4.49,.17-15.32,.07-30.65,.08-45.97Z"/>
  <path className="cls-1" d="M173.09,105.85c0,14.82-.13,29.65,.09,44.47,.06,3.97-.7,5.83-5.11,5.33-3.45-.39-7.04-.45-10.48,0-8.68,1.15-15.21-1.86-21.82-7.73-27.37-24.3-55.13-48.18-83.03-71.88-21.76-18.49-19.44-50.45,.36-66.52C66.47-1.31,82.71-2.51,98.69,3.95c19.25,7.77,29.44,22.79,32.13,43.16,.32,2.44-.22,3.88-3.06,3.73-2.33-.12-4.66-.02-6.99-.02-3.66,0-7.64,.87-10.91-.27-3.81-1.33-2.03-6.16-3.35-9.3-5.66-13.41-19.37-21.1-31.82-17.7-8.12,2.22-12.75,7.73-14.37,15.54-1.63,7.85,.77,14.89,6.88,20.22,11.48,10.01,22.95,20.04,34.75,29.66,6.62,5.4,13.23,10.9,19.67,16.43,7.93,6.81,15.87,13.72,23.64,20.77,1.29,1.17,2.56,3.29,4.53,2.54,2.2-.83,1.12-3.23,1.12-4.91,.06-21.15,.13-42.31-.05-63.46-.03-3.74,.96-5.01,4.74-4.74,4.47,.32,9.01,.31,13.48,0,3.49-.24,4.1,1.2,4.07,4.28-.12,15.32-.06,30.65-.06,45.97Z"/>
</svg>
