<svg width="40" height="40" viewBox="0 0 40 40" fill="none" xmlns="http://www.w3.org/2000/svg">
<path fill-rule="evenodd" clip-rule="evenodd" d="M28.0721 10.9131C26.0071 8.9436 23.2512 7.87066 20.3999 7.91476C15.1822 7.91476 10.7508 11.4348 9.1708 16.1748C8.33303 18.6588 8.33303 21.3486 9.17079 23.8325H9.17813C10.7655 28.5652 15.1895 32.0853 20.4072 32.0853C23.1006 32.0853 25.4129 31.3964 27.205 30.1795V30.1746C29.3141 28.7783 30.7545 26.581 31.2028 24.0971H20.3999V16.3954H39.2645C39.4997 17.7329 39.6099 19.0998 39.6099 20.4594C39.6099 26.5425 37.436 31.6854 33.6533 35.1688L33.6573 35.1718C30.3429 38.2289 25.794 40 20.3999 40C12.8379 40 5.92257 35.7377 2.52738 28.984C-0.309265 23.3328 -0.309258 16.6747 2.52741 11.0234C5.92259 4.26241 12.8379 5.00318e-06 20.3999 5.00318e-06C25.3677 -0.0587861 30.1666 1.80783 33.7822 5.20302L28.0721 10.9131Z" fill="#42D392"/>
</svg>
