<svg width="40" height="40" viewBox="0 0 40 40" fill="none" xmlns="http://www.w3.org/2000/svg">
<path fill-rule="evenodd" clip-rule="evenodd" d="M20.0002 0.833374C15.2523 0.835837 10.66 2.51747 7.04458 5.57758C3.42914 8.63769 1.0263 12.8767 0.265704 17.5367C-0.494894 22.1967 0.436341 26.9737 2.89291 31.0137C5.34949 35.0536 9.1712 38.093 13.6747 39.5883C14.6682 39.7727 15.0425 39.157 15.0425 38.6334C15.0425 38.1098 15.0226 36.5917 15.016 34.9321C9.45212 36.134 8.27644 32.5842 8.27644 32.5842C7.369 30.2791 6.05752 29.6732 6.05752 29.6732C4.24265 28.4416 6.19332 28.4647 6.19332 28.4647C8.20359 28.6063 9.26006 30.5162 9.26006 30.5162C11.0418 33.5556 13.9396 32.6764 15.0789 32.1627C15.2577 30.8751 15.7777 29.9992 16.3506 29.502C11.9062 29.0014 7.23653 27.2957 7.23653 19.6757C7.20898 17.6996 7.9465 15.7885 9.29648 14.3378C9.09115 13.8373 8.40559 11.8154 9.49187 9.06909C9.49187 9.06909 11.171 8.53563 14.9928 11.1074C18.2709 10.2161 21.7296 10.2161 25.0077 11.1074C28.8262 8.53563 30.502 9.06909 30.502 9.06909C31.5915 11.8088 30.906 13.8307 30.7007 14.3378C32.0549 15.7887 32.794 17.7031 32.7639 19.6823C32.7639 27.3187 28.0843 29.0014 23.6333 29.4921C24.3486 30.1112 24.9878 31.3197 24.9878 33.1769C24.9878 35.8376 24.9646 37.9781 24.9646 38.6334C24.9646 39.1635 25.3256 39.7826 26.339 39.5883C30.843 38.0928 34.6651 35.0529 37.1217 31.0123C39.5782 26.9716 40.5089 22.1939 39.7475 17.5335C38.986 12.873 36.582 8.63397 32.9653 5.57438C29.3487 2.5148 24.7554 0.834276 20.0069 0.833374H20.0002Z" fill="#42D392"/>
</svg>
